<svg xmlns="http://www.w3.org/2000/svg" xmlns:xlink="http://www.w3.org/1999/xlink" viewBox="0 0 512 512">
  <defs>
    <linearGradient id="g" x1="15.75" y1="-13.7" x2="57.91" y2="28.45" gradientUnits="userSpaceOnUse">
      <stop offset="0" stop-color="#382e8c"/>
      <stop offset=".52" stop-color="#e01e26"/>
      <stop offset="1" stop-color="#faa31b"/>
    </linearGradient>
  </defs>
  <!-- White background square -->
  <rect width="512" height="512" rx="80" fill="#ffffff"/>
  <!-- Logo centered: original viewBox 72x27.22, scaled to ~360x136 and centered -->
  <g transform="translate(76, 188) scale(5)">
    <path fill="url(#g)" d="M17.71,0H3.51C1.57,0,0,1.57,0,3.51s1.57,3.51,3.51,3.51h7.88c1.58,0,2.85,1.28,2.85,2.85v13.75c0,1.94,1.57,3.51,3.51,3.51s3.51-1.57,3.51-3.51V3.55C21.26,1.59,19.67,0,17.71,0Z"/>
    <path fill="url(#g)" d="M70.15.62l-.34-.18c-1.71-.93-3.85-.29-4.78,1.42l-9.09,16.8s0,0,0,0c-.08.11-.21.18-.36.18s-.28-.07-.36-.18c0,0,0,0,0,0v-.02s0,0,0,0c-.02-.02-.03-.05-.04-.08l-1.95-3.69c-.89-1.7-2.63-2.66-4.42-2.66-.79,0-1.58.19-2.33.58-.05.02-.09.05-.13.08,0,0-.01,0-.02.01-.84.45-1.56,1.15-2.04,2.06l-1.8,3.41-.07.14h0s0,.02,0,.02c-.08.1-.21.16-.34.16-.15,0-.28-.07-.36-.18v-.03s-.06-.08-.06-.08l-.12-.23c-.98-1.8-3.23-2.48-5.04-1.5-1.24.67-1.95,1.95-1.95,3.27,0,.6.14,1.2.45,1.76l2.14,3.96c.19.36.47.65.78.86,0,0,0,0,0,0,.05.05.53.49,1.49.66,0,0,0,0,0,0,.16.04.32.06.49.06h3.81s.08,0,.12,0c0,0,.01,0,.02,0,1.44-.05,2.81-.85,3.53-2.22l.97-1.84.05-.09h0s.01-.02.01-.02c0,0,0,0,0,0,.08-.11.21-.18.36-.18s.27.07.36.18c0,0,0,0,0,0l1,1.89c.64,1.21,1.79,1.98,3.05,2.17.14.05.28.08.43.08h4.37c.13,0,.26-.02.39-.04,0,0,0,0,.01,0,1.17-.19,1.89-1.05,1.96-1.14,0,0,0,0,0,0,.14-.15.26-.32.36-.51l10.87-20.09c.93-1.71.29-3.85-1.42-4.78Z"/>
    <rect fill="url(#g)" x="22.58" y="0" width="21.22" height="7.02" rx="3.51" ry="3.51"/>
    <rect fill="url(#g)" x="22.58" y="10.06" width="13.66" height="7.02" rx="3.51" ry="3.51"/>
  </g>
</svg>
